<?xml version="1.0" standalone="no"?>
<!DOCTYPE svg PUBLIC "-//W3C//DTD SVG 20010904//EN"
 "http://www.w3.org/TR/2001/REC-SVG-20010904/DTD/svg10.dtd">
<svg version="1.0" xmlns="http://www.w3.org/2000/svg"
 width="86.000000pt" height="64.000000pt" viewBox="0 0 86.000000 64.000000"
 preserveAspectRatio="xMidYMid meet">

<g transform="translate(0.000000,64.000000) scale(0.100000,-0.100000)"
fill="#000000" stroke="none">
<path d="M162 618 c-7 -7 -12 -20 -12 -30 0 -11 -13 -23 -33 -32 -41 -17 -94
-79 -107 -126 -13 -46 -13 -135 1 -184 14 -51 91 -128 145 -144 66 -19 105
-14 183 23 40 19 76 35 79 35 4 0 47 -34 97 -75 49 -41 96 -75 103 -75 8 0 63
26 123 57 l109 58 0 71 0 71 -67 85 c-113 140 -163 195 -211 229 -40 29 -55
33 -125 37 -44 3 -103 -1 -133 -7 -46 -11 -57 -10 -76 3 -27 19 -59 21 -76 4z
m53 -28 c3 -5 -3 -10 -14 -10 -12 0 -21 5 -21 10 0 6 6 10 14 10 8 0 18 -4 21
-10z m296 -14 c19 -8 37 -17 41 -21 4 -4 -30 -20 -75 -36 -45 -16 -87 -35 -93
-43 -9 -13 -17 -9 -49 24 -22 22 -47 42 -57 46 -31 9 -20 21 30 32 71 15 165
14 203 -2z m-241 -61 c15 -8 61 -56 103 -107 42 -51 112 -134 157 -185 76 -86
81 -95 78 -132 l-3 -40 -115 100 c-63 54 -120 99 -127 99 -6 0 -14 -12 -18
-28 -12 -53 -70 -102 -122 -102 -42 0 -112 33 -146 68 -33 35 -57 103 -56 156
2 30 3 33 6 14 6 -42 30 -34 36 11 5 43 54 120 75 121 6 0 12 7 12 15 0 8 -2
15 -5 15 -11 0 -60 -34 -79 -54 -18 -21 -18 -21 -4 4 8 14 34 35 59 48 48 25
96 24 149 -3z m294 -12 c3 -4 -22 -17 -56 -30 -80 -30 -80 -30 -84 -18 -2 6
22 20 53 32 65 24 77 26 87 16z m197 -176 c27 -34 49 -66 49 -71 0 -6 -6 -2
-12 7 -12 14 -20 13 -95 -20 -80 -35 -102 -58 -65 -65 15 -3 15 -4 1 -10 -12
-4 -32 13 -72 60 -30 37 -86 103 -123 147 -37 44 -59 72 -48 63 28 -24 46 -23
137 9 65 23 77 31 73 46 -5 21 82 -72 155 -166z m9 -97 c-8 -5 -19 -10 -25
-10 -5 0 -3 5 5 10 8 5 20 10 25 10 6 0 3 -5 -5 -10z m47 -74 c-4 -10 -167
-106 -179 -106 -2 0 -2 20 0 44 l4 43 86 40 87 39 3 -24 c2 -13 1 -29 -1 -36z
m-427 34 c0 -4 -6 -10 -14 -13 -10 -4 -12 0 -9 14 5 18 23 18 23 -1z"/>
<path d="M142 443 c-23 -9 -42 -62 -42 -118 0 -51 3 -60 31 -86 56 -52 138
-34 158 35 13 50 -3 126 -34 154 -25 21 -79 29 -113 15z m102 -57 c14 -18 20
-40 19 -67 -3 -73 -53 -100 -107 -58 -22 17 -26 28 -26 70 0 40 5 55 24 74 30
29 59 23 90 -19z"/>
</g>
</svg>
