<?xml version="1.0" standalone="no"?>
<!DOCTYPE svg PUBLIC "-//W3C//DTD SVG 20010904//EN"
 "http://www.w3.org/TR/2001/REC-SVG-20010904/DTD/svg10.dtd">
<svg version="1.0" xmlns="http://www.w3.org/2000/svg"
 width="76.000000pt" height="77.000000pt" viewBox="0 0 76.000000 77.000000"
 preserveAspectRatio="xMidYMid meet">

<g transform="translate(0.000000,77.000000) scale(0.100000,-0.100000)"
fill="#000000" stroke="none">
<path d="M477 750 c-42 -8 -73 -32 -63 -49 5 -7 14 -6 31 5 13 8 49 18 79 21
38 4 56 10 56 19 0 15 -39 17 -103 4z"/>
<path d="M182 738 c3 -7 28 -15 59 -18 30 -3 64 -11 75 -17 21 -12 34 -8 34 8
0 5 -13 15 -30 24 -36 19 -144 21 -138 3z"/>
<path d="M365 594 c-3 -26 -9 -52 -12 -60 -9 -24 -81 -44 -158 -44 -68 0 -77
2 -109 30 -20 18 -38 45 -43 67 -10 43 -33 57 -33 19 0 -32 17 -76 39 -101 10
-11 24 -49 30 -85 7 -36 19 -89 28 -118 17 -61 21 -163 8 -241 -12 -77 15 -64
31 15 15 69 9 159 -16 264 -10 41 -20 86 -24 100 l-5 25 82 -3 c85 -4 150 9
180 36 15 14 19 14 35 0 33 -29 92 -41 178 -35 l83 5 -6 -32 c-3 -17 -14 -65
-24 -108 -26 -105 -23 -287 5 -316 15 -15 25 16 16 48 -27 94 13 362 67 444
30 46 45 132 22 124 -8 -3 -15 -13 -17 -24 -14 -85 -52 -109 -179 -109 -87 0
-94 2 -119 26 -18 19 -28 41 -31 73 -7 59 -19 59 -28 0z"/>
<path d="M110 525 c0 -8 5 -15 10 -15 6 0 10 7 10 15 0 8 -4 15 -10 15 -5 0
-10 -7 -10 -15z"/>
<path d="M630 524 c0 -17 22 -14 28 4 2 7 -3 12 -12 12 -9 0 -16 -7 -16 -16z"/>
<path d="M360 430 c0 -29 -5 -43 -17 -47 -24 -10 -92 -9 -125 1 -22 6 -28 5
-28 -8 0 -23 69 -40 127 -30 26 4 90 8 142 8 77 1 96 4 104 18 17 27 1 32 -39
13 -25 -12 -47 -15 -72 -10 -50 9 -62 21 -62 61 0 24 -5 34 -15 34 -11 0 -15
-11 -15 -40z"/>
<path d="M360 286 c0 -37 -12 -46 -60 -46 -28 0 -60 22 -60 41 0 5 -4 9 -10 9
-13 0 -13 -40 0 -60 7 -12 36 -15 137 -17 70 -1 135 3 145 8 27 15 42 49 28
63 -9 8 -14 8 -17 -2 -10 -26 -36 -42 -68 -42 -40 0 -65 22 -65 56 0 15 -6 24
-15 24 -10 0 -15 -10 -15 -34z"/>
<path d="M365 158 c-8 -24 -18 -34 -43 -40 -36 -10 -72 4 -72 27 0 8 -7 15
-15 15 -22 0 -18 -37 6 -61 19 -19 28 -20 73 -14 28 4 58 7 66 6 112 -13 138
-12 154 4 18 18 18 56 1 62 -6 2 -15 -7 -20 -19 -7 -17 -20 -24 -48 -26 -47
-4 -67 11 -67 49 0 39 -23 37 -35 -3z"/>
</g>
</svg>
