<?xml version="1.0" standalone="no"?>
<!DOCTYPE svg PUBLIC "-//W3C//DTD SVG 20010904//EN"
 "http://www.w3.org/TR/2001/REC-SVG-20010904/DTD/svg10.dtd">
<svg version="1.0" xmlns="http://www.w3.org/2000/svg"
 width="85.000000pt" height="78.000000pt" viewBox="0 0 85.000000 78.000000"
 preserveAspectRatio="xMidYMid meet">

<g transform="translate(0.000000,78.000000) scale(0.100000,-0.100000)"
fill="#000000" stroke="none">
<path d="M225 765 c-5 -2 -27 -6 -48 -10 -46 -7 -110 -62 -140 -119 -33 -63
-27 -246 8 -246 10 0 12 16 8 80 -4 50 -1 96 7 125 29 103 142 166 235 130 51
-19 103 -74 112 -116 7 -37 29 -38 38 -1 10 40 49 87 88 106 51 24 127 21 168
-7 71 -48 119 -160 104 -247 -11 -65 -30 -75 -164 -78 l-116 -3 -17 31 c-23
41 -34 32 -43 -31 -10 -71 -22 -46 -30 63 -6 75 -10 89 -23 86 -12 -2 -22 -25
-33 -73 -14 -61 -17 -67 -24 -42 -10 36 -31 35 -38 -3 l-6 -30 -109 0 c-119 0
-132 -5 -132 -56 0 -65 106 -167 279 -268 l81 -48 92 65 c90 63 248 213 248
236 0 25 -27 6 -109 -77 -84 -86 -206 -182 -231 -182 -21 0 -185 107 -239 156
-59 53 -94 105 -85 128 5 13 24 16 119 16 l113 0 6 -31 c9 -49 29 -29 47 47
l16 69 7 -65 c16 -156 18 -170 31 -170 12 0 22 30 40 133 5 28 11 35 18 28 14
-14 236 -15 271 -1 44 17 61 55 60 139 -3 158 -89 261 -217 261 -67 0 -117
-20 -158 -63 l-30 -32 -43 41 c-24 22 -57 44 -73 47 -17 3 -41 8 -54 11 -13 3
-28 3 -34 1z"/>
</g>
</svg>
