<?xml version="1.0" standalone="no"?>
<!DOCTYPE svg PUBLIC "-//W3C//DTD SVG 20010904//EN"
 "http://www.w3.org/TR/2001/REC-SVG-20010904/DTD/svg10.dtd">
<svg version="1.0" xmlns="http://www.w3.org/2000/svg"
 width="73.000000pt" height="76.000000pt" viewBox="0 0 73.000000 76.000000"
 preserveAspectRatio="xMidYMid meet">

<g transform="translate(0.000000,76.000000) scale(0.100000,-0.100000)"
fill="white" stroke="none">
<path d="M242 714 c-16 -36 -16 -37 3 -48 30 -17 99 -86 92 -92 -3 -4 -27 1
-53 10 -176 60 -296 -62 -266 -268 14 -90 78 -221 134 -272 40 -36 41 -36 102
-29 80 9 135 9 221 0 67 -7 72 -6 101 18 67 57 137 239 138 362 0 59 -4 78
-26 116 -32 54 -66 79 -119 86 -35 5 -37 7 -28 30 5 13 9 47 9 74 0 46 -2 49
-26 49 -39 0 -90 -28 -125 -68 -28 -31 -32 -33 -41 -18 -19 33 -70 86 -84 86
-8 0 -22 -16 -32 -36z m278 -24 c0 -61 -34 -101 -101 -120 -25 -7 -29 -6 -29
11 0 51 73 133 123 138 4 1 7 -13 7 -29z m-219 -6 l24 -26 -27 13 c-16 7 -28
18 -28 26 0 18 3 17 31 -13z m-5 -136 c75 -22 76 -22 142 -4 100 27 119 30
152 16 79 -33 112 -128 86 -250 -19 -93 -76 -210 -118 -245 -28 -24 -38 -26
-78 -21 -120 18 -150 18 -195 3 -72 -25 -112 1 -178 120 -89 157 -87 289 6
368 49 42 77 44 183 13z"/>
<path d="M151 499 c-31 -29 -51 -80 -51 -130 0 -56 23 -47 31 13 8 50 32 93
60 109 11 5 19 14 19 19 0 18 -36 11 -59 -11z"/>
<path d="M107 303 c-12 -11 -8 -23 8 -23 8 0 15 7 15 15 0 16 -12 20 -23 8z"/>
</g>
</svg>
