<?xml version="1.0" standalone="no"?>
<!DOCTYPE svg PUBLIC "-//W3C//DTD SVG 20010904//EN"
 "http://www.w3.org/TR/2001/REC-SVG-20010904/DTD/svg10.dtd">
<svg version="1.0" xmlns="http://www.w3.org/2000/svg"
 width="74.000000pt" height="88.000000pt" viewBox="0 0 74.000000 88.000000"
 preserveAspectRatio="xMidYMid meet">

<g transform="translate(0.000000,88.000000) scale(0.100000,-0.100000)"
fill="white" stroke="none">
<path d="M256 854 c-9 -9 -16 -32 -16 -56 0 -31 4 -41 20 -45 30 -8 24 -19
-21 -37 -132 -53 -219 -174 -227 -317 -7 -119 24 -206 97 -279 91 -91 188
-121 321 -101 166 26 269 127 292 288 10 69 9 89 -6 152 -10 41 -31 95 -46
121 -31 52 -30 60 7 60 16 0 27 9 35 26 12 25 10 29 -26 60 -22 19 -49 34 -61
34 -27 0 -49 -24 -42 -45 10 -24 -7 -26 -59 -5 -27 10 -58 22 -69 25 -19 7
-19 7 3 16 17 6 22 16 22 44 0 69 -9 75 -115 75 -72 0 -97 -4 -109 -16z m94
-44 c0 -20 -5 -30 -15 -30 -10 0 -15 10 -15 30 0 20 5 30 15 30 10 0 15 -10
15 -30z m50 5 c0 -35 28 -32 32 3 4 22 6 24 12 10 13 -30 -1 -48 -36 -48 -30
0 -33 3 -33 30 0 17 5 30 13 30 6 0 12 -11 12 -25z m-110 -12 c0 -20 -3 -24
-11 -16 -7 7 -9 19 -6 27 10 24 17 19 17 -11z m98 -60 c-16 -2 -40 -2 -55 0
-16 2 -3 4 27 4 30 0 43 -2 28 -4z m272 -38 c13 -14 19 -25 13 -25 -5 0 -20
11 -33 25 -13 14 -19 25 -13 25 5 0 20 -11 33 -25z m-138 -34 c71 -40 111 -84
144 -155 23 -50 27 -72 27 -151 0 -114 -20 -162 -97 -232 -67 -61 -133 -86
-234 -86 -63 0 -87 5 -132 26 -111 53 -178 155 -187 286 -5 74 -4 84 25 143
68 140 184 212 329 204 58 -4 84 -11 125 -35z m102 -12 c-3 -5 -10 -7 -15 -3
-5 3 -7 10 -3 15 3 5 10 7 15 3 5 -3 7 -10 3 -15z"/>
<path d="M290 661 c-130 -27 -224 -158 -222 -308 1 -120 58 -200 182 -256 54
-24 156 -28 213 -8 50 17 151 116 177 172 27 61 27 171 -1 236 -26 62 -82 120
-139 145 -49 21 -155 31 -210 19z m179 -42 c51 -15 118 -77 146 -134 27 -55
26 -145 -4 -203 -51 -100 -142 -169 -226 -173 -86 -4 -133 13 -203 73 -61 52
-82 94 -82 168 0 91 24 155 76 205 80 78 176 99 293 64z"/>
<path d="M212 552 c-32 -30 -68 -94 -73 -131 -5 -29 18 -41 27 -14 18 57 41
97 71 123 18 16 33 34 33 40 0 19 -28 10 -58 -18z"/>
<path d="M438 476 c-36 -41 -53 -53 -68 -49 -28 7 -50 -14 -50 -48 0 -32 28
-53 57 -42 23 8 33 23 33 48 0 12 25 45 55 75 59 58 65 70 38 70 -10 0 -39
-25 -65 -54z m-60 -94 c2 -7 -3 -12 -12 -12 -9 0 -16 7 -16 16 0 17 22 14 28
-4z"/>
<path d="M130 355 c0 -8 7 -15 15 -15 8 0 15 7 15 15 0 8 -7 15 -15 15 -8 0
-15 -7 -15 -15z"/>
</g>
</svg>
